<?xml version="1.0" encoding="UTF-8"?>
<svg version="1.1" xmlns="http://www.w3.org/2000/svg" width="180" height="180">
<path d="M0 0 C1.09591713 -0.00744736 1.09591713 -0.00744736 2.213974 -0.01504517 C4.62597605 -0.02962464 7.03791233 -0.03646187 9.44995117 -0.04199219 C11.13140361 -0.04774727 12.81285605 -0.05350496 14.49430847 -0.05926514 C18.01899521 -0.06976325 21.54365921 -0.07561364 25.06835938 -0.07910156 C29.5741189 -0.08458265 34.07957569 -0.10860737 38.58524036 -0.13707352 C42.05890263 -0.15574203 45.5324926 -0.16090774 49.00620079 -0.16243744 C50.66671083 -0.16545518 52.32721987 -0.17345392 53.98768044 -0.18662262 C56.31623679 -0.20377115 58.64406152 -0.20178175 60.97265625 -0.1953125 C61.99146378 -0.20913467 61.99146378 -0.20913467 63.03085327 -0.22323608 C77.88187828 -0.09467188 87.88063277 14.25410272 97.49291992 23.97363281 C99.91320554 26.42053238 102.33680798 28.86407678 104.76245117 31.30566406 C105.31246292 31.86397415 105.86247467 32.42228424 106.42915344 32.99751282 C108.75433121 35.33761847 110.92493973 37.32414602 113.68041992 39.16113281 C115.32643829 44.09918791 114.90551373 49.22130119 114.9206543 54.39306641 C114.93031812 56.39009586 114.96150508 58.38698333 114.99291992 60.38378906 C115.02823382 69.09749275 114.62992615 75.25904873 108.74291992 82.03613281 C108.25952148 82.61105469 107.77612305 83.18597656 107.27807617 83.77832031 C105.42931027 85.37847466 104.03668278 85.6482831 101.68041992 86.16113281 C101.69041267 87.20230507 101.69041267 87.20230507 101.7006073 88.26451111 C101.76098265 94.83977992 101.80652758 101.41497017 101.83585644 107.99045467 C101.85144218 111.37014125 101.87254848 114.74959675 101.90673828 118.12915039 C101.94329942 122.02398684 101.96018759 125.91849927 101.97338867 129.81347656 C101.98887253 131.01383041 102.00435638 132.21418427 102.02030945 133.45091248 C102.02189537 141.43329615 101.15161824 147.97910489 97.05541992 154.91113281 C90.30838052 161.30306488 83.78055405 162.90031492 74.68798828 162.79223633 C73.62663162 162.79939163 72.56527496 162.80654694 71.47175598 162.81391907 C67.98747817 162.83073292 64.50450018 162.81144621 61.02026367 162.79003906 C58.58606358 162.79086836 56.15186354 162.79333005 53.71766663 162.79734802 C48.62622134 162.80020097 43.53521719 162.78555206 38.44384766 162.75805664 C31.92825472 162.72395744 25.41344933 162.7300034 18.89781857 162.74871922 C13.87481661 162.75930296 8.85199693 162.75033902 3.82901192 162.7353344 C1.42692163 162.7301635 -0.97518777 162.73062107 -3.37727547 162.73687935 C-6.73744578 162.74234863 -10.09649994 162.72190036 -13.45654297 162.69458008 C-14.93506241 162.7043689 -14.93506241 162.7043689 -16.44345093 162.71435547 C-23.54531456 162.61650741 -29.21773521 161.22766256 -34.37817383 156.12597656 C-34.83321289 155.45695313 -35.28825195 154.78792969 -35.75708008 154.09863281 C-36.23016602 153.42703125 -36.70325195 152.75542969 -37.19067383 152.06347656 C-39.33539737 148.44935766 -39.43970635 145.48574666 -39.4296875 141.3762207 C-39.43055611 139.59405907 -39.43055611 139.59405907 -39.43144226 137.77589417 C-39.42827751 135.84930214 -39.42827751 135.84930214 -39.42504883 133.88378906 C-39.43850055 131.17738817 -39.45341461 128.4710287 -39.4699707 125.76464844 C-39.49431586 121.48724333 -39.50998785 117.21032611 -39.49462891 112.93286133 C-39.48523176 110.14431365 -39.49151405 107.3566812 -39.51570129 104.56822205 C-39.53828097 101.94068422 -39.53804593 99.31283332 -39.51298523 96.68531799 C-39.55805781 93.39929802 -39.640973 90.37669489 -40.31958008 87.16113281 C-43.04428615 84.32881703 -43.04428615 84.32881703 -46.31958008 83.16113281 C-48.18286133 81.16113281 -48.18286133 81.16113281 -49.63208008 79.16113281 C-50.12321289 78.50113281 -50.6143457 77.84113281 -51.12036133 77.16113281 C-54.44053901 71.62389838 -53.5056411 64.92357066 -53.50488281 58.68896484 C-53.5070729 56.66775565 -53.52526149 54.64708959 -53.54418945 52.62597656 C-53.54612305 51.34851562 -53.54805664 50.07105469 -53.55004883 48.75488281 C-53.55415771 47.58634766 -53.5582666 46.4178125 -53.5625 45.21386719 C-53.23834457 41.14025964 -52.38075217 39.08965839 -49.31958008 36.41113281 C-47.31958008 35.16113281 -47.31958008 35.16113281 -45.31958008 35.16113281 C-44.98958008 34.17113281 -44.65958008 33.18113281 -44.31958008 32.16113281 C-43.65958008 32.16113281 -42.99958008 32.16113281 -42.31958008 32.16113281 C-42.05145508 31.52175781 -41.78333008 30.88238281 -41.50708008 30.22363281 C-40.31958008 28.16113281 -40.31958008 28.16113281 -37.31958008 27.16113281 C-37.03083008 26.58363281 -36.74208008 26.00613281 -36.44458008 25.41113281 C-34.92574939 22.37347144 -32.77114275 20.49866932 -30.31958008 18.16113281 C-29.43270508 17.23300781 -28.54583008 16.30488281 -27.63208008 15.34863281 C-25.31958008 13.16113281 -25.31958008 13.16113281 -23.31958008 13.16113281 C-23.09012695 12.5875 -22.86067383 12.01386719 -22.62426758 11.42285156 C-20.97925081 8.57116081 -19.02209986 7.01193852 -16.44458008 4.97363281 C-15.14907227 3.93142578 -15.14907227 3.93142578 -13.82739258 2.86816406 C-9.42020311 -0.13174528 -5.20424901 0.00848943 0 0 Z M-5.31958008 15.16113281 C-5.31958008 15.82113281 -5.31958008 16.48113281 -5.31958008 17.16113281 C-5.97958008 17.16113281 -6.63958008 17.16113281 -7.31958008 17.16113281 C-7.31958008 17.82113281 -7.31958008 18.48113281 -7.31958008 19.16113281 C-7.97958008 19.16113281 -8.63958008 19.16113281 -9.31958008 19.16113281 C-10.98624674 20.49446615 -10.98624674 20.49446615 -12.31958008 22.16113281 C-12.31958008 22.82113281 -12.31958008 23.48113281 -12.31958008 24.16113281 C-12.97958008 24.16113281 -13.63958008 24.16113281 -14.31958008 24.16113281 C-14.31958008 24.82113281 -14.31958008 25.48113281 -14.31958008 26.16113281 C-15.30958008 26.49113281 -16.29958008 26.82113281 -17.31958008 27.16113281 C-17.31958008 27.82113281 -17.31958008 28.48113281 -17.31958008 29.16113281 C-17.97958008 29.16113281 -18.63958008 29.16113281 -19.31958008 29.16113281 C-19.31958008 29.82113281 -19.31958008 30.48113281 -19.31958008 31.16113281 C-19.97958008 31.16113281 -20.63958008 31.16113281 -21.31958008 31.16113281 C-21.31958008 31.82113281 -21.31958008 32.48113281 -21.31958008 33.16113281 C-22.30958008 33.49113281 -23.29958008 33.82113281 -24.31958008 34.16113281 C-24.31958008 34.82113281 -24.31958008 35.48113281 -24.31958008 36.16113281 C11.98041992 36.16113281 48.28041992 36.16113281 85.68041992 36.16113281 C85.18541992 34.67613281 85.18541992 34.67613281 84.68041992 33.16113281 C84.02041992 33.16113281 83.36041992 33.16113281 82.68041992 33.16113281 C82.68041992 32.50113281 82.68041992 31.84113281 82.68041992 31.16113281 C82.02041992 31.16113281 81.36041992 31.16113281 80.68041992 31.16113281 C80.68041992 30.50113281 80.68041992 29.84113281 80.68041992 29.16113281 C80.02041992 29.16113281 79.36041992 29.16113281 78.68041992 29.16113281 C78.18541992 27.67613281 78.18541992 27.67613281 77.68041992 26.16113281 C77.02041992 26.16113281 76.36041992 26.16113281 75.68041992 26.16113281 C75.68041992 25.50113281 75.68041992 24.84113281 75.68041992 24.16113281 C75.02041992 24.16113281 74.36041992 24.16113281 73.68041992 24.16113281 C73.27823242 23.20207031 73.27823242 23.20207031 72.86791992 22.22363281 C71.7937424 19.82981595 71.7937424 19.82981595 68.68041992 19.16113281 C68.68041992 18.50113281 68.68041992 17.84113281 68.68041992 17.16113281 C68.02041992 17.16113281 67.36041992 17.16113281 66.68041992 17.16113281 C66.68041992 16.50113281 66.68041992 15.84113281 66.68041992 15.16113281 C42.92041992 15.16113281 19.16041992 15.16113281 -5.31958008 15.16113281 Z M-38.31958008 52.16113281 C-38.31958008 57.77113281 -38.31958008 63.38113281 -38.31958008 69.16113281 C-33.34753393 74.42692498 -33.34753393 74.42692498 -30.18676758 74.09863281 C-29.26250977 73.63457031 -29.26250977 73.63457031 -28.31958008 73.16113281 C-27.36438477 72.69707031 -27.36438477 72.69707031 -26.38989258 72.22363281 C-25.42696289 71.69769531 -25.42696289 71.69769531 -24.44458008 71.16113281 C-21.02066758 69.43335442 -18.221468 68.2441517 -14.31958008 68.16113281 C-10.77274831 69.40563519 -7.81968717 70.82772809 -4.69458008 72.91113281 C-2.41633451 74.35732186 -2.41633451 74.35732186 0.05541992 74.09863281 C2.90484534 73.08098088 5.33252048 71.62492473 7.93041992 70.09082031 C13.45595034 67.15538228 18.01821576 68.50152125 23.68041992 70.16113281 C23.68041992 70.82113281 23.68041992 71.48113281 23.68041992 72.16113281 C26.150548 73.77621656 27.50943533 74.16873213 30.49291992 74.03613281 C33.20753007 73.29094571 34.8329508 72.5810148 37.18041992 71.16113281 C40.39778279 69.23916331 42.85019905 68.23930059 46.68041992 68.16113281 C50.61041605 69.1785824 53.96932557 70.69809463 57.36791992 72.91113281 C59.59078966 74.36094894 59.59078966 74.36094894 62.05541992 74.09863281 C64.90392623 73.08130913 67.33101311 71.62411893 69.93041992 70.09472656 C73.22007373 68.339755 76.00928418 67.728487 79.65698242 68.67285156 C82.84036001 69.79955262 85.52999477 71.06318155 88.36791992 72.91113281 C90.6182503 74.37496128 90.6182503 74.37496128 93.24291992 74.09863281 C96.25260979 73.1304609 96.25260979 73.1304609 99.68041992 69.16113281 C99.68041992 63.55113281 99.68041992 57.94113281 99.68041992 52.16113281 C54.14041992 52.16113281 8.60041992 52.16113281 -38.31958008 52.16113281 Z M-18.14379883 84.93847656 C-18.75868164 85.32132812 -19.37356445 85.70417969 -20.00708008 86.09863281 C-21.10020508 86.77925781 -22.19333008 87.45988281 -23.31958008 88.16113281 C-23.41224509 95.4106991 -23.48332664 102.66013779 -23.52682877 109.91017628 C-23.54770746 113.27667465 -23.57602847 116.64276797 -23.62133789 120.0090332 C-23.66973733 123.87885336 -23.69252269 127.74809699 -23.71020508 131.61816406 C-23.73085022 132.82761185 -23.75149536 134.03705963 -23.77276611 135.28315735 C-23.77306824 136.40409286 -23.77337036 137.52502838 -23.77368164 138.67993164 C-23.78256409 139.66810379 -23.79144653 140.65627594 -23.80059814 141.6743927 C-23.5398969 144.29562787 -23.5398969 144.29562787 -21.44006348 145.98242188 C-18.87336594 147.40916941 -17.25928495 147.50759083 -14.33520508 147.45410156 C-12.93334961 147.43959961 -12.93334961 147.43959961 -11.50317383 147.42480469 C-10.53508789 147.39966797 -9.56700195 147.37453125 -8.56958008 147.34863281 C-7.58602539 147.33509766 -6.6024707 147.3215625 -5.58911133 147.30761719 C-3.16537593 147.27232007 -0.74275862 147.22301335 1.68041992 147.16113281 C1.70023926 146.32453125 1.72005859 145.48792969 1.74047852 144.62597656 C1.81912099 141.48722935 1.90582995 138.34883195 1.99780273 135.21044922 C2.05438115 133.19807949 2.1018608 131.18546054 2.14916992 129.17285156 C2.34909473 122.54201205 2.68973208 116.50543879 4.68041992 110.16113281 C5.34041992 110.16113281 6.00041992 110.16113281 6.68041992 110.16113281 C7.27854492 109.54238281 7.87666992 108.92363281 8.49291992 108.28613281 C14.05938636 102.87870827 21.14167123 103.78878344 28.43554688 103.79052734 C30.47701278 103.78616679 32.51629073 103.74984416 34.55737305 103.71191406 C42.05123787 103.68971002 47.39768011 103.9164525 53.68041992 108.16113281 C58.17534233 113.69334501 58.78300982 117.93120363 58.99682617 124.89550781 C59.0387207 126.19101563 59.08061523 127.48652344 59.1237793 128.82128906 C59.16358664 130.18456758 59.20329898 131.54784887 59.24291992 132.91113281 C59.28614266 134.29005157 59.32975813 135.66895807 59.3737793 137.04785156 C59.4798595 140.41884472 59.58191842 143.78991108 59.68041992 147.16113281 C63.26347984 147.27740785 66.8460541 147.34840641 70.43041992 147.41113281 C71.44620117 147.44464844 72.46198242 147.47816406 73.50854492 147.51269531 C74.48823242 147.52558594 75.46791992 147.53847656 76.47729492 147.55175781 C77.37802734 147.57270508 78.27875977 147.59365234 79.20678711 147.61523438 C82.53614508 147.00404154 83.56873196 145.77068388 85.68041992 143.16113281 C86.25543001 140.5470452 86.25543001 140.5470452 86.13452148 137.65820312 C86.1340683 136.00694427 86.1340683 136.00694427 86.13360596 134.32232666 C86.10263824 132.54870758 86.10263824 132.54870758 86.07104492 130.73925781 C86.06255524 128.91657379 86.06255524 128.91657379 86.05389404 127.05706787 C86.03149727 123.17468939 85.98129179 119.29323254 85.93041992 115.41113281 C85.91035933 112.77963572 85.8921078 110.14812417 85.87573242 107.51660156 C85.83162145 101.064464 85.76467511 94.61286425 85.68041992 88.16113281 C84.40109645 87.47424144 83.11615024 86.79781397 81.82885742 86.12597656 C81.11391113 85.74820068 80.39896484 85.3704248 79.66235352 84.98120117 C77.6524011 83.92321742 77.6524011 83.92321742 75.30541992 84.72363281 C74.43916992 85.19800781 73.57291992 85.67238281 72.68041992 86.16113281 C66.26839199 88.59212775 61.40423423 89.78786208 54.68041992 88.16113281 C53.26924663 87.46211588 51.87306802 86.73206934 50.49291992 85.97363281 C47.54049435 84.30025488 47.54049435 84.30025488 44.24291992 84.72363281 C43.39729492 85.19800781 42.55166992 85.67238281 41.68041992 86.16113281 C34.95260226 88.99253098 29.82973631 90.07373604 22.76635742 87.45019531 C21.05831966 86.71610249 19.36841514 85.94020753 17.68041992 85.16113281 C15.28992261 84.29789767 14.21090016 83.9493865 11.82104492 84.90332031 C11.19713867 85.27714844 10.57323242 85.65097656 9.93041992 86.03613281 C4.75277777 88.76321505 0.52790958 89.96687851 -5.16333008 88.35644531 C-7.9179116 87.36334618 -10.61728769 86.28745177 -13.31958008 85.16113281 C-16.14824933 83.85001207 -16.14824933 83.85001207 -18.14379883 84.93847656 Z M16.68041992 121.16113281 C16.4019706 123.88047616 16.4019706 123.88047616 16.48510742 127.04394531 C16.49010254 128.09469238 16.49509766 129.14543945 16.50024414 130.22802734 C16.51845215 131.56720215 16.53666016 132.90637695 16.55541992 134.28613281 C16.59666992 138.53488281 16.63791992 142.78363281 16.68041992 147.16113281 C25.92041992 147.16113281 35.16041992 147.16113281 44.68041992 147.16113281 C44.72166992 142.91238281 44.76291992 138.66363281 44.80541992 134.28613281 C44.83273193 132.27737061 44.83273193 132.27737061 44.8605957 130.22802734 C44.86559082 129.17728027 44.87058594 128.1265332 44.87573242 127.04394531 C44.88620605 125.96516113 44.89667969 124.88637695 44.9074707 123.77490234 C44.94881969 121.00069259 44.94881969 121.00069259 42.68041992 119.16113281 C40.19080892 118.85004784 40.19080892 118.85004784 37.30541992 118.89550781 C36.23807617 118.89292969 35.17073242 118.89035156 34.07104492 118.88769531 C32.95213867 118.89542969 31.83323242 118.90316406 30.68041992 118.91113281 C29.00206055 118.89953125 29.00206055 118.89953125 27.28979492 118.88769531 C26.22245117 118.89027344 25.15510742 118.89285156 24.05541992 118.89550781 C22.58202148 118.8988916 22.58202148 118.8988916 21.07885742 118.90234375 C18.49603496 118.92740418 18.49603496 118.92740418 16.68041992 121.16113281 Z " fill="#A648F7" transform="translate(59.319580078125,8.8388671875)"/>
</svg>
